<?xml version="1.0" standalone="no"?>
<!DOCTYPE svg PUBLIC "-//W3C//DTD SVG 20010904//EN"
 "http://www.w3.org/TR/2001/REC-SVG-20010904/DTD/svg10.dtd">
<svg version="1.0" xmlns="http://www.w3.org/2000/svg"
 width="153.000000pt" height="153.000000pt" viewBox="0 0 153.000000 153.000000"
 preserveAspectRatio="xMidYMid meet">
<metadata>
Created by potrace 1.14, written by Peter Selinger 2001-2017
</metadata>
<g transform="translate(0.000000,153.000000) scale(0.100000,-0.100000)"
fill="#000000" stroke="none">
<path d="M631 1154 c-77 -17 -196 -73 -242 -116 -19 -16 -41 -35 -50 -41 -62
-47 -147 -198 -173 -307 -18 -81 -14 -256 8 -277 5 -6 215 -7 221 -1 3 2 0 20
-5 39 -40 138 2 297 104 392 133 125 336 134 488 22 120 -88 175 -265 129
-414 -6 -19 -9 -36 -8 -37 3 -4 122 -7 183 -5 52 1 56 9 60 131 6 192 -55 333
-202 470 -139 128 -333 183 -513 144z"/>
<path d="M556 647 c-110 -80 -34 -258 99 -231 39 8 82 49 96 91 16 49 -10 115
-56 143 -41 26 -102 24 -139 -3z"/>
</g>
</svg>
